<?xml version="1.0" encoding="UTF-8"?>
<!DOCTYPE svg PUBLIC "-//W3C//DTD SVG 1.1//EN" "http://www.w3.org/Graphics/SVG/1.1/DTD/svg11.dtd">
<!-- Creator: CorelDRAW 2019 (64-Bit) -->
<svg xmlns="http://www.w3.org/2000/svg" xml:space="preserve" width="115.655mm" height="2.9632mm" version="1.1" style="shape-rendering:geometricPrecision; text-rendering:geometricPrecision; image-rendering:optimizeQuality; fill-rule:evenodd; clip-rule:evenodd"
viewBox="0 0 11557.01 296.1"
 xmlns:xlink="http://www.w3.org/1999/xlink"
 xmlns:xodm="http://www.corel.com/coreldraw/odm/2003">
 <defs>
  <style type="text/css">
   <![CDATA[
    .fil0 {fill:#754546}
    .fil3 {fill:#FEFEFE;fill-rule:nonzero}
    .fil2 {fill:#FEC85D;fill-rule:nonzero}
    .fil1 {fill:#8A3D3F;fill-rule:nonzero}
   ]]>
  </style>
 </defs>
 <g id="Layer_x0020_1">
  <metadata id="CorelCorpID_0Corel-Layer"/>
  <g id="_2621715931952">
   <rect class="fil0" x="-0.01" y="0" width="11557.01" height="296.1"/>
   <rect class="fil0" x="0" y="-0" width="156.52" height="296.1"/>
   <g>
    <path class="fil1" d="M677.55 240.64l-451.17 0c-51.07,0 -92.61,-41.54 -92.61,-92.6 0,-51.06 41.54,-92.59 92.61,-92.59l451.17 0c51.05,0 92.6,41.53 92.6,92.59 0,51.06 -41.55,92.6 -92.6,92.6z"/>
    <path class="fil2" d="M687.51 220.57l-471.09 0c-34.54,0 -62.55,-28.01 -62.55,-62.55l0 -19.93c0,-34.54 28.01,-62.55 62.55,-62.55l471.09 0c34.54,0 62.55,28.01 62.55,62.55l0 19.93c0,34.54 -28.01,62.55 -62.55,62.55z"/>
    <path class="fil3" d="M183.06 157.12c0,-30.16 29.22,-54.61 65.26,-54.61l406.02 0c36.03,0 65.25,24.45 65.25,54.61l18.1 0 0 -0.01c0,-38.46 -37.4,-69.74 -83.35,-69.74l-406.02 0c-45.96,0 -83.35,31.28 -83.35,69.74l0 0.01 18.09 0z"/>
   </g>
   <rect class="fil0" x="11400.5" y="-0" width="156.52" height="296.1"/>
   <g>
    <path class="fil1" d="M11307.89 240.64l-451.17 0c-51.07,0 -92.61,-41.54 -92.61,-92.6 0,-51.06 41.54,-92.59 92.61,-92.59l451.17 0c51.05,0 92.6,41.53 92.6,92.59 0,51.06 -41.55,92.6 -92.6,92.6z"/>
    <path class="fil2" d="M11317.84 220.57l-471.09 0c-34.54,0 -62.55,-28.01 -62.55,-62.55l0 -19.93c0,-34.54 28.01,-62.55 62.55,-62.55l471.09 0c34.54,0 62.55,28.01 62.55,62.55l0 19.93c0,34.54 -28.01,62.55 -62.55,62.55z"/>
    <path class="fil3" d="M10813.39 157.12c0,-30.16 29.22,-54.61 65.26,-54.61l406.02 0c36.03,0 65.25,24.45 65.25,54.61l18.1 0 0 -0.01c0,-38.46 -37.4,-69.74 -83.35,-69.74l-406.02 0c-45.96,0 -83.35,31.28 -83.35,69.74l0 0.01 18.09 0z"/>
   </g>
  </g>
 </g>
</svg>
